<svg width="17" height="16" viewBox="0 0 17 16" fill="none" xmlns="http://www.w3.org/2000/svg">
<path d="M8.5 0C9.56087 0 10.5783 0.421427 11.3284 1.17157C12.0786 1.92172 12.5 2.93913 12.5 4C12.5 5.06087 12.0786 6.07828 11.3284 6.82843C10.5783 7.57857 9.56087 8 8.5 8C7.43913 8 6.42172 7.57857 5.67157 6.82843C4.92143 6.07828 4.5 5.06087 4.5 4C4.5 2.93913 4.92143 1.92172 5.67157 1.17157C6.42172 0.421427 7.43913 0 8.5 0ZM8.5 2C7.96957 2 7.46086 2.21071 7.08579 2.58579C6.71071 2.96086 6.5 3.46957 6.5 4C6.5 4.53043 6.71071 5.03914 7.08579 5.41421C7.46086 5.78929 7.96957 6 8.5 6C9.03043 6 9.53914 5.78929 9.91421 5.41421C10.2893 5.03914 10.5 4.53043 10.5 4C10.5 3.46957 10.2893 2.96086 9.91421 2.58579C9.53914 2.21071 9.03043 2 8.5 2ZM8.5 9C11.17 9 16.5 10.33 16.5 13V16H0.5V13C0.5 10.33 5.83 9 8.5 9ZM8.5 10.9C5.53 10.9 2.4 12.36 2.4 13V14.1H14.6V13C14.6 12.36 11.47 10.9 8.5 10.9Z" fill="black"/>
</svg>
