<svg width="15" height="16" viewBox="0 0 15 16" fill="none" xmlns="http://www.w3.org/2000/svg">
<path d="M13.2038 14.4V5.6H1.79638V14.4H13.2038ZM10.7593 0H12.389V1.6H13.2038C13.636 1.6 14.0505 1.76857 14.3561 2.06863C14.6617 2.36869 14.8334 2.77565 14.8334 3.2V14.4C14.8334 15.288 14.1082 16 13.2038 16H1.79638C1.36417 16 0.94967 15.8314 0.644055 15.5314C0.338441 15.2313 0.166748 14.8243 0.166748 14.4V3.2C0.166748 2.312 0.891933 1.6 1.79638 1.6H2.61119V0H4.24082V1.6H10.7593V0ZM6.68527 6.8H8.3149V9.2H10.7593V10.8H8.3149V13.2H6.68527V10.8H4.24082V9.2H6.68527V6.8Z" fill="black"/>
</svg>
