<svg width="14" height="15" viewBox="0 0 14 15" fill="none" xmlns="http://www.w3.org/2000/svg">
<path d="M2 2.60625V10.625C1.99988 11.4184 2.30154 12.1821 2.8438 12.7613C3.38606 13.3405 4.12831 13.6917 4.92 13.7437L5.125 13.75H10.6425C10.5133 14.1155 10.2739 14.432 9.95737 14.6559C9.64084 14.8797 9.26269 14.9999 8.875 15H4.5C3.50544 15 2.55161 14.6049 1.84835 13.9017C1.14509 13.1984 0.75 12.2446 0.75 11.25V4.375C0.749797 3.98709 0.86991 3.60867 1.09379 3.29189C1.31766 2.9751 1.63428 2.73555 2 2.60625ZM11.375 0C11.8723 0 12.3492 0.197544 12.7008 0.549175C13.0525 0.900806 13.25 1.37772 13.25 1.875V10.625C13.25 11.1223 13.0525 11.5992 12.7008 11.9508C12.3492 12.3025 11.8723 12.5 11.375 12.5H5.125C4.62772 12.5 4.15081 12.3025 3.79917 11.9508C3.44754 11.5992 3.25 11.1223 3.25 10.625V1.875C3.25 1.37772 3.44754 0.900806 3.79917 0.549175C4.15081 0.197544 4.62772 0 5.125 0H11.375ZM11.375 1.25H5.125C4.95924 1.25 4.80027 1.31585 4.68306 1.43306C4.56585 1.55027 4.5 1.70924 4.5 1.875V10.625C4.5 10.7908 4.56585 10.9497 4.68306 11.0669C4.80027 11.1842 4.95924 11.25 5.125 11.25H11.375C11.5408 11.25 11.6997 11.1842 11.8169 11.0669C11.9342 10.9497 12 10.7908 12 10.625V1.875C12 1.70924 11.9342 1.55027 11.8169 1.43306C11.6997 1.31585 11.5408 1.25 11.375 1.25Z" fill="black"/>
</svg>
