<svg width="18" height="18" viewBox="0 0 18 18" fill="none" xmlns="http://www.w3.org/2000/svg">
<path d="M1.96979 16.0274H3.34865L11.8434 7.52055L10.4645 6.13973L1.96979 14.6466V16.0274ZM16.0538 6.09041L11.868 1.94795L13.2469 0.567123C13.6244 0.189041 14.0883 0 14.6385 0C15.1887 0 15.6523 0.189041 16.0292 0.567123L17.408 1.94795C17.7856 2.32603 17.9826 2.78236 17.999 3.31693C18.0154 3.85151 17.8348 4.30751 17.4573 4.68493L16.0538 6.09041ZM14.6257 7.54521L4.18581 18H0V13.8082L10.4399 3.35342L14.6257 7.54521ZM11.1539 6.83014L10.4645 6.13973L11.8434 7.52055L11.1539 6.83014Z" fill="#26A9F9"/>
</svg>
