<?xml version="1.0" encoding="UTF-8" standalone="no"?>
<svg width="20" height="20" viewBox="0 0 20 20" version="1.1" id="svg4" xmlns="http://www.w3.org/2000/svg">
<path fill="#a7aaad" d="M 15.250651,19.789001 C 15.058958,19.634039 14.122887,18.73857 13.170494,17.799095 l -1.731629,-1.708143 -0.834396,-0.07158 C 8.6019761,15.847408 7.9078931,15.44482 5.6232578,13.130602 3.6342155,11.115821 3.3452717,10.680208 2.9304312,9.0708015 2.6222424,7.8751703 2.6200219,5.6887269 2.9257062,4.5182269 3.7288265,1.4440396 6.0097605,-0.15095428 9.3709101,0.01125821 c 1.3358019,0.0644875 2.2778699,0.31620623 3.0846519,0.82426871 0.683032,0.43013768 3.359063,3.06996258 3.831253,3.77940628 0.625761,0.9401874 1.133588,2.7973559 0.769133,2.8128059 -0.07313,0.0025 -0.911917,0.089769 -1.863977,0.1925249 L 13.460953,7.807114 12.281282,6.5998578 11.101608,5.3925957 10.734484,5.5137769 c -0.604339,0.199375 -1.0648249,0.7528185 -1.3008439,1.5632684 -0.254835,0.8750625 -0.37138,2.1464999 -0.27065,2.9527007 0.07221,0.578056 0.08478,0.597237 0.347673,0.531262 0.6987389,-0.175275 1.2281179,-0.9106378 1.3627269,-1.8927003 0.06,-0.4378374 0.09576,-0.4925249 0.29342,-0.4487999 0.123804,0.027375 0.958943,0.14575 1.855887,0.2633187 1.195373,0.1566125 1.706587,0.2686062 1.914611,0.4197875 0.156095,0.1133875 0.752035,0.6787125 1.324317,1.2562 l 1.040516,1.049963 -0.121797,0.579687 c -0.171166,0.814656 -0.742531,2.010856 -1.205006,2.52275 l -0.391537,0.433394 0.27872,2.343818 c 0.153284,1.289107 0.263154,2.448413 0.244126,2.576232 -0.05834,0.391937 -0.454049,0.449412 -0.856107,0.12425 z m -4.815962,-6.783856 c 0.99964,-0.210712 1.960538,-0.699762 2.566984,-1.306212 0.547146,-0.547137 1.18614,-1.7673878 1.233086,-2.3547503 l 0.02915,-0.36475 -1.329592,-0.1892125 C 12.203042,8.6862827 11.528808,8.599114 11.43602,8.5965202 11.318453,8.5940202 11.211374,8.7930515 11.082808,9.2556452 10.860689,10.054571 10.203213,10.769708 9.5840361,10.885883 8.8748021,11.018877 7.9879088,10.888383 7.5279857,10.584608 6.6180976,9.9824764 6.1401176,8.2676765 6.2816026,6.1130956 6.4402013,3.6980645 7.2894326,2.533752 8.8923591,2.533752 c 0.706958,0 1.3744709,0.2796125 1.6732229,0.7009125 0.223395,0.3150062 0.56049,1.2043562 0.56049,1.4786562 0,0.08575 0.08376,0.154725 0.186142,0.1535437 0.463283,-0.005 2.914294,-0.297075 2.970076,-0.3528437 0.0343,-0.03425 -0.06248,-0.459025 -0.215057,-0.943825 C 13.344275,1.2728458 11.364667,0.1284957 8.4668861,0.33280194 5.6288019,0.53288318 3.7764351,2.1116208 3.2029199,4.8191019 c -0.2019931,0.95355 -0.2043789,2.8882059 -0.00472,3.9310996 0.429028,2.2423375 1.8769952,3.8112005 3.9297227,4.2578505 0.873533,0.190156 2.3982365,0.188737 3.3068604,-0.0025 z"/>
</svg>
