<svg width="15" height="15" viewBox="0 0 15 15" fill="none" xmlns="http://www.w3.org/2000/svg">
<path d="M13.65 14.5334L11.6833 12.5667C11.15 12.9223 10.5751 13.1945 9.95868 13.3834C9.34223 13.5723 8.68935 13.6667 8.00001 13.6667C7.07779 13.6667 6.21112 13.4916 5.40001 13.1414C4.5889 12.7912 3.88335 12.3163 3.28335 11.7167C2.68335 11.1167 2.20846 10.4112 1.85868 9.60004C1.5089 8.78893 1.33379 7.92226 1.33335 7.00004C1.33335 6.31115 1.42779 5.65826 1.61668 5.04137C1.80557 4.42449 2.07779 3.84982 2.43335 3.31737L0.450012 1.33337L1.40001 0.383374L14.6 13.5834L13.65 14.5334ZM7.33335 12.3V11C6.96668 11 6.65268 10.8696 6.39135 10.6087C6.13001 10.3478 5.99957 10.0338 6.00001 9.66671V9.00004L2.80001 5.80004C2.76668 6.00004 2.73601 6.20004 2.70801 6.40004C2.68001 6.60004 2.66623 6.80004 2.66668 7.00004C2.66668 8.34449 3.10846 9.52226 3.99201 10.5334C4.87557 11.5445 5.98935 12.1334 7.33335 12.3ZM13.5667 10.65L12.6 9.68337C12.8333 9.27226 13.014 8.84182 13.142 8.39204C13.27 7.94226 13.3338 7.47826 13.3333 7.00004C13.3333 5.91115 13.0305 4.91671 12.4247 4.01671C11.8189 3.11671 11.0107 2.46671 10 2.06671V2.33337C10 2.70004 9.86935 3.01404 9.60801 3.27537C9.34668 3.53671 9.0329 3.66715 8.66668 3.66671H7.33335V4.41671L4.35001 1.43337C4.88335 1.08893 5.45557 0.819596 6.06668 0.625374C6.67779 0.431152 7.32223 0.333818 8.00001 0.333374C8.92223 0.333374 9.7889 0.508485 10.6 0.858707C11.4111 1.20893 12.1167 1.68382 12.7167 2.28337C13.3167 2.88337 13.7918 3.58893 14.142 4.40004C14.4922 5.21115 14.6671 6.07782 14.6667 7.00004C14.6667 7.67782 14.5693 8.32226 14.3747 8.93337C14.18 9.54449 13.9107 10.1167 13.5667 10.65Z" fill="black"/>
</svg>
