<svg width="16" height="16" viewBox="0 0 16 16" fill="none" xmlns="http://www.w3.org/2000/svg">
<path d="M7.99998 14.6667C7.07776 14.6667 6.21109 14.4916 5.39998 14.1414C4.58887 13.7912 3.88331 13.3163 3.28331 12.7167C2.68331 12.1167 2.20842 11.4112 1.85865 10.6C1.50887 9.78893 1.33376 8.92226 1.33331 8.00004C1.33331 7.07782 1.50842 6.21115 1.85865 5.40004C2.20887 4.58893 2.68376 3.88337 3.28331 3.28337C3.88331 2.68337 4.58887 2.20849 5.39998 1.85871C6.21109 1.50893 7.07776 1.33382 7.99998 1.33337C8.9222 1.33337 9.78887 1.50849 10.6 1.85871C11.4111 2.20893 12.1166 2.68382 12.7166 3.28337C13.3166 3.88337 13.7918 4.58893 14.142 5.40004C14.4922 6.21115 14.6671 7.07782 14.6666 8.00004C14.6666 8.92226 14.4915 9.78893 14.1413 10.6C13.7911 11.4112 13.3162 12.1167 12.7166 12.7167C12.1166 13.3167 11.4111 13.7918 10.6 14.142C9.78887 14.4923 8.9222 14.6672 7.99998 14.6667ZM7.33331 13.3V12C6.96665 12 6.65265 11.8694 6.39131 11.608C6.12998 11.3467 5.99954 11.0329 5.99998 10.6667V10L2.79998 6.80004C2.76665 7.00004 2.73598 7.20004 2.70798 7.40004C2.67998 7.60004 2.6662 7.80004 2.66665 8.00004C2.66665 9.34449 3.10842 10.5223 3.99198 11.5334C4.87554 12.5445 5.98931 13.1334 7.33331 13.3ZM11.9333 11.6C12.1555 11.3556 12.3555 11.0916 12.5333 10.808C12.7111 10.5245 12.8582 10.23 12.9746 9.92471C13.0915 9.61937 13.1804 9.3056 13.2413 8.98337C13.3022 8.66115 13.3329 8.33337 13.3333 8.00004C13.3333 6.91115 13.0304 5.91671 12.4246 5.01671C11.8189 4.11671 11.0106 3.46671 9.99998 3.06671V3.33337C9.99998 3.70004 9.86931 4.01404 9.60798 4.27537C9.34665 4.53671 9.03287 4.66715 8.66665 4.66671H7.33331V6.00004C7.33331 6.18893 7.26931 6.34737 7.14131 6.47537C7.01331 6.60337 6.85509 6.66715 6.66665 6.66671H5.33331V8.00004H9.33331C9.5222 8.00004 9.68065 8.06404 9.80865 8.19204C9.93665 8.32004 10.0004 8.47826 9.99998 8.66671V10.6667H10.6666C10.9555 10.6667 11.2166 10.7529 11.45 10.9254C11.6833 11.0978 11.8444 11.3227 11.9333 11.6Z" fill="black"/>
</svg>
