<?xml version="1.0" encoding="UTF-8" standalone="no"?>
<svg
   width="36"
   height="36"
   viewBox="0 0 36 36"
   fill="none"
   version="1.1"
   id="svg4"
   xmlns="http://www.w3.org/2000/svg"
   xmlns:svg="http://www.w3.org/2000/svg">
  <defs
     id="defs8" />
  <circle
     cx="18"
     cy="18"
     r="17"
     fill="white"
     stroke="black"
     stroke-width="2"
     id="circle2"
     style="fill:#ff2e22;fill-opacity:1.0" />
  <path
     d="m 25.2806,24.219333 c 0.0697,0.0697 0.125,0.1524 0.1627,0.2435 0.0377,0.091 0.0571,0.1886 0.0571,0.2872 0,0.0985 -0.0194,0.1961 -0.0571,0.2871 -0.0377,0.0911 -0.093,0.1738 -0.1627,0.2435 -0.0696,0.0697 -0.1524,0.1249 -0.2434,0.1626 -0.0911,0.0378 -0.1886,0.0572 -0.2872,0.0572 -0.0985,0 -0.1961,-0.0194 -0.2872,-0.0572 -0.091,-0.0377 -0.1737,-0.0929 -0.2434,-0.1626 l -6.21938,-6.22034 -6.21938,6.22034 c -0.14073,0.1407 -0.3316,0.2198 -0.53062,0.2198 -0.19903,0 -0.389897,-0.0791 -0.530628,-0.2198 -0.14073,-0.1408 -0.219792,-0.3316 -0.219792,-0.5306 0,-0.1991 0.07906,-0.3899 0.219792,-0.5307 l 6.220308,-6.21935 -6.220308,-6.21937 c -0.14073,-0.14073 -0.219792,-0.33161 -0.219792,-0.53063 0,-0.19902 0.07906,-0.389894 0.219792,-0.530624 0.140731,-0.140731 0.331598,-0.219792 0.530628,-0.219792 0.19902,0 0.38989,0.07906 0.53062,0.219792 l 6.21938,6.220314 6.21938,-6.220314 c 0.1407,-0.140731 0.3316,-0.219792 0.5306,-0.219792 0.199,0 0.3899,0.07906 0.5306,0.219792 0.1408,0.14073 0.2198,0.331604 0.2198,0.530624 0,0.19902 -0.079,0.3899 -0.2198,0.53063 l -6.22027,6.21937 z"
     fill="#000000"
     id="path10" />
</svg>
