<svg width="24" height="24" viewBox="0 0 24 24" fill="none" xmlns="http://www.w3.org/2000/svg">
<path d="M16.9234 16.7462L16.9234 16.7462L16.7462 16.9234L16.7412 16.9284L16.7412 16.9283C15.1058 18.5187 12.9135 19.4068 10.6323 19.4032M16.9234 16.7462L19.4032 10.6323C19.4028 5.78782 15.4776 1.8629 10.6331 1.8629C5.78825 1.8629 1.8629 5.78825 1.8629 10.6331C1.8629 15.4776 5.78782 19.4028 10.6323 19.4032M16.9234 16.7462L16.9283 16.7412M16.9234 16.7462L16.9283 16.7412M10.6323 19.4032L10.6331 18.9032V19.4032C10.6328 19.4032 10.6325 19.4032 10.6323 19.4032ZM16.9283 16.7412C18.5185 15.1059 19.4066 12.914 19.4032 10.6331L16.9283 16.7412ZM18.5497 16.9565L18.2695 17.3061L18.5863 17.6229L23.2929 22.3283L22.3283 23.2929L17.6229 18.5863L17.3061 18.2695L16.9565 18.5497C15.1631 19.9874 12.9323 20.7694 10.6338 20.7661H10.6331C5.03975 20.7661 0.5 16.2264 0.5 10.6331C0.5 5.03975 5.03975 0.5 10.6331 0.5C16.2264 0.5 20.7661 5.03975 20.7661 10.6331V10.6338C20.7694 12.9323 19.9874 15.1631 18.5497 16.9565Z" fill="black" stroke="black"/>
</svg>
