<svg width="16" height="16" viewBox="0 0 16 16" fill="none" xmlns="http://www.w3.org/2000/svg">
<path d="M12.64 3.2H11.04C10.952 3.2 10.88 3.272 10.88 3.36V12.64C10.88 12.728 10.952 12.8 11.04 12.8H12.64C12.728 12.8 12.8 12.728 12.8 12.64V3.36C12.8 3.272 12.728 3.2 12.64 3.2ZM8.8 8.8H7.2C7.112 8.8 7.04 8.872 7.04 8.96V12.64C7.04 12.728 7.112 12.8 7.2 12.8H8.8C8.888 12.8 8.96 12.728 8.96 12.64V8.96C8.96 8.872 8.888 8.8 8.8 8.8ZM4.96 7.36H3.36C3.272 7.36 3.2 7.432 3.2 7.52V12.64C3.2 12.728 3.272 12.8 3.36 12.8H4.96C5.048 12.8 5.12 12.728 5.12 12.64V7.52C5.12 7.432 5.048 7.36 4.96 7.36ZM0.64 16H15.36C15.714 16 16 15.714 16 15.36V0.64C16 0.286 15.714 0 15.36 0H0.64C0.286 0 0 0.286 0 0.64V15.36C0 15.714 0.286 16 0.64 16ZM1.44 1.44H14.56V14.56H1.44V1.44Z" fill="black"/>
</svg>
